<svg viewBox="0 0 16 16" width="16" height="16" fill="none" stroke="currentColor" stroke-width="1.4" stroke-linecap="round" stroke-linejoin="round">
  <path d="M8 1.5C4.96 1.5 2.5 3.96 2.5 7c0 3.04 2.46 5.5 5.5 5.5.46 0 .83-.37.83-.83a.83.83 0 0 0-.22-.56.82.82 0 0 1-.21-.55.83.83 0 0 1 .83-.83H10A2.75 2.75 0 0 0 12.75 7C12.75 4.34 10.56 1.5 8 1.5z"/>
  <circle cx="5.5" cy="7.5" r="0.8" fill="currentColor" stroke="none"/>
  <circle cx="6.5" cy="5"   r="0.8" fill="currentColor" stroke="none"/>
  <circle cx="9"   cy="4.5" r="0.8" fill="currentColor" stroke="none"/>
  <circle cx="11"  cy="6.5" r="0.8" fill="currentColor" stroke="none"/>
  <circle cx="5.5" cy="7.5" r="0.8" fill="currentColor" stroke="none"/>
</svg>
